<mxfile host="app.diagrams.net" modified="2021-02-11T11:09:18.125Z" agent="5.0 (Windows NT 10.0; Win64; x64) AppleWebKit/537.36 (KHTML, like Gecko) Chrome/88.0.4324.150 Safari/537.36 Edg/88.0.705.63" etag="OM2pBjc1KSdAwOxGQU98" version="14.3.0" type="github">
  <diagram id="xbRaA5l_0iceEt46TK0b" name="Page-1">
    <mxGraphModel dx="446" dy="233" grid="1" gridSize="10" guides="1" tooltips="1" connect="1" arrows="1" fold="1" page="1" pageScale="1" pageWidth="1169" pageHeight="827" math="0" shadow="0">
      <root>
        <mxCell id="0" />
        <mxCell id="1" parent="0" />
        <mxCell id="gDaYZ-myov2PqWbHqzSd-16" style="edgeStyle=orthogonalEdgeStyle;rounded=0;orthogonalLoop=1;jettySize=auto;html=1;" parent="1" source="gDaYZ-myov2PqWbHqzSd-1" target="gDaYZ-myov2PqWbHqzSd-6" edge="1">
          <mxGeometry relative="1" as="geometry" />
        </mxCell>
        <mxCell id="gDaYZ-myov2PqWbHqzSd-1" value="" style="ellipse;fillColor=#000000;strokeColor=none;" parent="1" vertex="1">
          <mxGeometry x="60" y="267.5" width="25" height="25" as="geometry" />
        </mxCell>
        <mxCell id="gDaYZ-myov2PqWbHqzSd-19" style="edgeStyle=orthogonalEdgeStyle;rounded=0;orthogonalLoop=1;jettySize=auto;html=1;exitX=1;exitY=0.5;exitDx=0;exitDy=0;entryX=0;entryY=0.5;entryDx=0;entryDy=0;" parent="1" source="gDaYZ-myov2PqWbHqzSd-6" target="gDaYZ-myov2PqWbHqzSd-8" edge="1">
          <mxGeometry relative="1" as="geometry">
            <mxPoint x="480" y="280" as="targetPoint" />
          </mxGeometry>
        </mxCell>
        <mxCell id="gDaYZ-myov2PqWbHqzSd-6" value="&lt;span style=&quot;font-size: 10px&quot;&gt;On Login Page&lt;/span&gt;" style="rounded=1;whiteSpace=wrap;html=1;strokeWidth=1;" parent="1" vertex="1">
          <mxGeometry x="140" y="260" width="92.5" height="40" as="geometry" />
        </mxCell>
        <mxCell id="gDaYZ-myov2PqWbHqzSd-27" style="edgeStyle=orthogonalEdgeStyle;rounded=0;orthogonalLoop=1;jettySize=auto;html=1;entryX=0;entryY=0.5;entryDx=0;entryDy=0;" parent="1" source="gDaYZ-myov2PqWbHqzSd-8" target="gDaYZ-myov2PqWbHqzSd-10" edge="1">
          <mxGeometry relative="1" as="geometry" />
        </mxCell>
        <mxCell id="gDaYZ-myov2PqWbHqzSd-8" value="&lt;span style=&quot;font-size: 10px&quot;&gt;On My Account&amp;nbsp;&lt;/span&gt;" style="rounded=1;whiteSpace=wrap;html=1;strokeWidth=1;" parent="1" vertex="1">
          <mxGeometry x="490" y="260" width="92.5" height="40" as="geometry" />
        </mxCell>
        <mxCell id="gDaYZ-myov2PqWbHqzSd-29" style="edgeStyle=orthogonalEdgeStyle;rounded=0;orthogonalLoop=1;jettySize=auto;html=1;entryX=0;entryY=0.5;entryDx=0;entryDy=0;" parent="1" source="gDaYZ-myov2PqWbHqzSd-10" target="gDaYZ-myov2PqWbHqzSd-12" edge="1">
          <mxGeometry relative="1" as="geometry" />
        </mxCell>
        <mxCell id="gDaYZ-myov2PqWbHqzSd-10" value="&lt;span style=&quot;font-size: 10px&quot;&gt;On My Past Reservations Page&lt;/span&gt;" style="rounded=1;whiteSpace=wrap;html=1;strokeWidth=1;" parent="1" vertex="1">
          <mxGeometry x="760" y="260" width="100" height="40" as="geometry" />
        </mxCell>
        <mxCell id="gDaYZ-myov2PqWbHqzSd-31" style="edgeStyle=orthogonalEdgeStyle;rounded=0;orthogonalLoop=1;jettySize=auto;html=1;" parent="1" source="gDaYZ-myov2PqWbHqzSd-12" target="gDaYZ-myov2PqWbHqzSd-14" edge="1">
          <mxGeometry relative="1" as="geometry" />
        </mxCell>
        <mxCell id="gDaYZ-myov2PqWbHqzSd-43" style="edgeStyle=orthogonalEdgeStyle;rounded=0;orthogonalLoop=1;jettySize=auto;html=1;exitX=0.5;exitY=1;exitDx=0;exitDy=0;entryX=0.5;entryY=1;entryDx=0;entryDy=0;" parent="1" source="gDaYZ-myov2PqWbHqzSd-12" target="gDaYZ-myov2PqWbHqzSd-10" edge="1">
          <mxGeometry relative="1" as="geometry" />
        </mxCell>
        <mxCell id="gDaYZ-myov2PqWbHqzSd-12" value="&lt;span style=&quot;font-size: 10px&quot;&gt;On Room&#39;s Owner Page&lt;/span&gt;" style="rounded=1;whiteSpace=wrap;html=1;strokeWidth=1;" parent="1" vertex="1">
          <mxGeometry x="1050" y="260" width="92.5" height="40" as="geometry" />
        </mxCell>
        <mxCell id="gDaYZ-myov2PqWbHqzSd-34" style="edgeStyle=orthogonalEdgeStyle;rounded=0;orthogonalLoop=1;jettySize=auto;html=1;entryX=0;entryY=0.5;entryDx=0;entryDy=0;" parent="1" source="gDaYZ-myov2PqWbHqzSd-14" target="gDaYZ-myov2PqWbHqzSd-15" edge="1">
          <mxGeometry relative="1" as="geometry" />
        </mxCell>
        <mxCell id="gDaYZ-myov2PqWbHqzSd-45" style="edgeStyle=orthogonalEdgeStyle;rounded=0;orthogonalLoop=1;jettySize=auto;html=1;exitX=0.5;exitY=0;exitDx=0;exitDy=0;entryX=0.5;entryY=0;entryDx=0;entryDy=0;" parent="1" source="gDaYZ-myov2PqWbHqzSd-14" target="gDaYZ-myov2PqWbHqzSd-10" edge="1">
          <mxGeometry relative="1" as="geometry">
            <Array as="points">
              <mxPoint x="1526" y="220" />
              <mxPoint x="810" y="220" />
            </Array>
            <mxPoint x="810" y="250" as="targetPoint" />
          </mxGeometry>
        </mxCell>
        <mxCell id="gDaYZ-myov2PqWbHqzSd-14" value="&lt;span style=&quot;font-size: 10px&quot;&gt;On Review Form&lt;/span&gt;" style="rounded=1;whiteSpace=wrap;html=1;strokeWidth=1;" parent="1" vertex="1">
          <mxGeometry x="1480" y="260" width="92.5" height="40" as="geometry" />
        </mxCell>
        <mxCell id="gDaYZ-myov2PqWbHqzSd-39" style="edgeStyle=orthogonalEdgeStyle;rounded=0;orthogonalLoop=1;jettySize=auto;html=1;" parent="1" source="gDaYZ-myov2PqWbHqzSd-15" edge="1">
          <mxGeometry relative="1" as="geometry">
            <mxPoint x="1970" y="280" as="targetPoint" />
          </mxGeometry>
        </mxCell>
        <mxCell id="gDaYZ-myov2PqWbHqzSd-15" value="&lt;span style=&quot;font-size: 10px&quot;&gt;On My Done Reviews&lt;/span&gt;" style="rounded=1;whiteSpace=wrap;html=1;strokeWidth=1;" parent="1" vertex="1">
          <mxGeometry x="1830" y="260" width="92.5" height="40" as="geometry" />
        </mxCell>
        <mxCell id="gDaYZ-myov2PqWbHqzSd-18" value="&lt;font style=&quot;font-size: 10px&quot;&gt;keystroke [User != validUser || Psw != ValidPsw]&lt;br&gt;/ display Login Page&lt;/font&gt;" style="text;html=1;align=center;verticalAlign=middle;resizable=0;points=[];autosize=1;" parent="1" vertex="1">
          <mxGeometry x="71.25" y="190" width="230" height="40" as="geometry" />
        </mxCell>
        <mxCell id="gDaYZ-myov2PqWbHqzSd-20" value="&lt;font style=&quot;font-size: 10px&quot;&gt;&lt;span style=&quot;color: rgb(0 , 0 , 0) ; font-family: &amp;#34;helvetica&amp;#34; ; font-style: normal ; font-weight: 400 ; letter-spacing: normal ; text-indent: 0px ; text-transform: none ; word-spacing: 0px ; background-color: rgb(248 , 249 , 250) ; display: inline ; float: none&quot;&gt;keystroke [User == validUser &amp;amp;&amp;amp; Psw == ValidPsw]&lt;/span&gt;&lt;br style=&quot;color: rgb(0 , 0 , 0) ; font-family: &amp;#34;helvetica&amp;#34; ; font-style: normal ; font-weight: 400 ; letter-spacing: normal ; text-indent: 0px ; text-transform: none ; word-spacing: 0px ; background-color: rgb(248 , 249 , 250)&quot;&gt;&lt;span style=&quot;color: rgb(0 , 0 , 0) ; font-family: &amp;#34;helvetica&amp;#34; ; font-style: normal ; font-weight: 400 ; letter-spacing: normal ; text-indent: 0px ; text-transform: none ; word-spacing: 0px ; background-color: rgb(248 , 249 , 250) ; display: inline ; float: none&quot;&gt;/ display HomePage&lt;/span&gt;&lt;/font&gt;" style="text;whiteSpace=wrap;html=1;align=center;" parent="1" vertex="1">
          <mxGeometry x="232.5" y="242.5" width="240" height="50" as="geometry" />
        </mxCell>
        <mxCell id="gDaYZ-myov2PqWbHqzSd-22" style="edgeStyle=orthogonalEdgeStyle;rounded=0;orthogonalLoop=1;jettySize=auto;html=1;exitX=0.75;exitY=0;exitDx=0;exitDy=0;entryX=0.25;entryY=0;entryDx=0;entryDy=0;" parent="1" source="gDaYZ-myov2PqWbHqzSd-6" target="gDaYZ-myov2PqWbHqzSd-6" edge="1">
          <mxGeometry relative="1" as="geometry">
            <Array as="points">
              <mxPoint x="209" y="230" />
              <mxPoint x="163" y="230" />
            </Array>
          </mxGeometry>
        </mxCell>
        <mxCell id="gDaYZ-myov2PqWbHqzSd-28" value="&lt;font style=&quot;font-size: 10px&quot;&gt;click [button == MyReservations]&lt;br&gt;/ display MyReservations Page&lt;br&gt;&lt;/font&gt;" style="text;html=1;align=center;verticalAlign=middle;resizable=0;points=[];autosize=1;" parent="1" vertex="1">
          <mxGeometry x="590" y="242.5" width="160" height="40" as="geometry" />
        </mxCell>
        <mxCell id="gDaYZ-myov2PqWbHqzSd-30" value="&lt;font size=&quot;1&quot;&gt;click [onSelectedRoom == True]&lt;br&gt;/ display Reservation Resume Page&amp;nbsp;&lt;/font&gt;" style="text;html=1;align=center;verticalAlign=middle;resizable=0;points=[];autosize=1;" parent="1" vertex="1">
          <mxGeometry x="860" y="242.5" width="180" height="40" as="geometry" />
        </mxCell>
        <mxCell id="gDaYZ-myov2PqWbHqzSd-32" value="&lt;font style=&quot;font-size: 10px&quot;&gt;click [button == MakeReview]&amp;nbsp;&lt;br&gt;/ display Review Form&lt;br&gt;&lt;/font&gt;" style="text;html=1;align=center;verticalAlign=middle;resizable=0;points=[];autosize=1;" parent="1" vertex="1">
          <mxGeometry x="1235" y="247.5" width="150" height="30" as="geometry" />
        </mxCell>
        <mxCell id="gDaYZ-myov2PqWbHqzSd-41" value="&lt;font size=&quot;1&quot;&gt;click [button == Enter &amp;amp;&amp;amp;&amp;nbsp;&lt;/font&gt;&lt;span style=&quot;font-size: x-small&quot;&gt;reviewInputIsValid == True&lt;/span&gt;&lt;font size=&quot;1&quot;&gt;]&lt;br&gt;/ display Review Check Page&lt;br&gt;&lt;/font&gt;" style="text;html=1;align=center;verticalAlign=middle;resizable=0;points=[];autosize=1;" parent="1" vertex="1">
          <mxGeometry x="1572.5" y="242.5" width="250" height="40" as="geometry" />
        </mxCell>
        <mxCell id="gDaYZ-myov2PqWbHqzSd-44" value="&lt;font style=&quot;font-size: 10px&quot;&gt;click [button == Back]&lt;br&gt;/ display My PastReservations List&lt;br&gt;&lt;/font&gt;" style="text;html=1;align=center;verticalAlign=middle;resizable=0;points=[];autosize=1;" parent="1" vertex="1">
          <mxGeometry x="865" y="325" width="170" height="30" as="geometry" />
        </mxCell>
        <mxCell id="gDaYZ-myov2PqWbHqzSd-46" value="&lt;font size=&quot;1&quot;&gt;click [button == Exit]&amp;nbsp;&lt;br&gt;/ display MyReservation List&amp;nbsp;&lt;br&gt;&lt;/font&gt;" style="text;html=1;align=center;verticalAlign=middle;resizable=0;points=[];autosize=1;" parent="1" vertex="1">
          <mxGeometry x="1026.25" y="180" width="140" height="40" as="geometry" />
        </mxCell>
        <mxCell id="gDaYZ-myov2PqWbHqzSd-47" value="&lt;font style=&quot;font-size: 16px&quot;&gt;&lt;b&gt;Use Case: Review Host&lt;/b&gt;&lt;/font&gt;" style="text;html=1;align=center;verticalAlign=middle;resizable=0;points=[];autosize=1;" parent="1" vertex="1">
          <mxGeometry x="60" y="90" width="190" height="20" as="geometry" />
        </mxCell>
        <mxCell id="I9y6EOZjCP_UA--8hyjQ-6" style="edgeStyle=orthogonalEdgeStyle;rounded=0;orthogonalLoop=1;jettySize=auto;html=1;exitX=0.5;exitY=1;exitDx=0;exitDy=0;entryX=0.108;entryY=0.996;entryDx=0;entryDy=0;entryPerimeter=0;" parent="1" source="gDaYZ-myov2PqWbHqzSd-14" target="gDaYZ-myov2PqWbHqzSd-14" edge="1">
          <mxGeometry relative="1" as="geometry">
            <Array as="points">
              <mxPoint x="1526" y="340" />
              <mxPoint x="1490" y="340" />
            </Array>
          </mxGeometry>
        </mxCell>
        <mxCell id="I9y6EOZjCP_UA--8hyjQ-9" value="&lt;font size=&quot;1&quot;&gt;click [button == Enter &amp;amp;&amp;amp;&amp;nbsp;&lt;/font&gt;&lt;span style=&quot;font-size: x-small&quot;&gt;reviewInputIsValid == False&lt;/span&gt;&lt;font size=&quot;1&quot;&gt;]&lt;br&gt;/ display Review Form&lt;/font&gt;" style="text;html=1;align=center;verticalAlign=middle;resizable=0;points=[];autosize=1;" parent="1" vertex="1">
          <mxGeometry x="1380" y="340" width="250" height="40" as="geometry" />
        </mxCell>
        <mxCell id="QuX4G5KSJX_H78mccC4k-1" value="" style="ellipse;html=1;shape=endState;fillColor=#000000;strokeColor=#000000;" vertex="1" parent="1">
          <mxGeometry x="1970" y="267.5" width="25" height="25" as="geometry" />
        </mxCell>
      </root>
    </mxGraphModel>
  </diagram>
</mxfile>
